<?xml version="1.0" encoding="UTF-8" standalone="no"?>
<!DOCTYPE svg PUBLIC "-//W3C//DTD SVG 1.1//EN"
 "http://www.w3.org/Graphics/SVG/1.1/DTD/svg11.dtd">
<!-- Generated by graphviz version 12.2.1 (20241206.2353)
 -->
<!-- Title: G Pages: 1 -->
<svg width="455pt" height="2425pt"
 viewBox="0.00 0.00 455.00 2425.45" xmlns="http://www.w3.org/2000/svg" xmlns:xlink="http://www.w3.org/1999/xlink">
<g id="graph0" class="graph" transform="scale(1 1) rotate(0) translate(36 2389.45)">
<title>G</title>
<polygon fill="#f7f7f7" stroke="none" points="-36,36 -36,-2389.45 419,-2389.45 419,36 -36,36"/>
<!-- appmodelsrole -->
<g id="node1" class="node">
<title>appmodelsrole</title>
<polygon fill="none" stroke="black" points="117.25,-117.45 17.25,-117.45 17.25,-17.45 117.25,-17.45 117.25,-117.45"/>
<polygon fill="#d3d3d3" stroke="none" points="17.25,-78.2 17.25,-117.45 117.25,-117.45 117.25,-78.2 17.25,-78.2"/>
<polygon fill="none" stroke="black" points="17.25,-78.2 17.25,-117.45 117.25,-117.45 117.25,-78.2 17.25,-78.2"/>
<text text-anchor="start" x="54.12" y="-93.15" font-family="Helvetica Neue" font-size="14.00" fill="#333333">Role</text>
</g>
<!-- appmodelsuser -->
<g id="node2" class="node">
<title>appmodelsuser</title>
<polygon fill="none" stroke="black" points="383,-117.45 283,-117.45 283,-17.45 383,-17.45 383,-117.45"/>
<polygon fill="#d3d3d3" stroke="none" points="283,-78.2 283,-117.45 383,-117.45 383,-78.2 283,-78.2"/>
<polygon fill="none" stroke="black" points="283,-78.2 283,-117.45 383,-117.45 383,-78.2 283,-78.2"/>
<text text-anchor="start" x="319.12" y="-93.15" font-family="Helvetica Neue" font-size="14.00" fill="#333333">User</text>
</g>
<!-- appmodelsrole&#45;&gt;appmodelsuser -->
<g id="edge1" class="edge">
<title>appmodelsrole:id&#45;&gt;appmodelsuser:role_id</title>
<path fill="none" stroke="#fcbf49" stroke-width="1.8" d="M117.55,-67.45C161.4,-67.45 225.63,-67.45 272.36,-67.45"/>
<polygon fill="#fcbf49" stroke="#fcbf49" stroke-width="1.8" points="272.34,-67.45 282.34,-71.95 277.94,-67.45 281.74,-67.45 281.74,-67.45 281.74,-67.45 277.94,-67.45 282.34,-62.95 272.34,-67.45"/>
<text text-anchor="middle" x="208.75" y="-71.4" font-family="Helvetica Neue" font-size="14.00"> </text>
<text text-anchor="middle" x="167.2" y="-54.15" font-family="Helvetica Neue" font-size="14.00">HasMany</text>
<text text-anchor="middle" x="167.2" y="-36.9" font-family="Helvetica Neue" font-size="14.00">users</text>
</g>
<!-- appmodelsuser&#45;&gt;appmodelsrole -->
<g id="edge2" class="edge">
<title>appmodelsuser:role_id&#45;&gt;appmodelsrole:id</title>
<path fill="none" stroke="#f77f00" stroke-width="1.8" d="M272.47,-50.11C241.9,-41.21 211,-32.2 211,-32.2 211,-32.2 206.5,-32.2 206.5,-32.2 206.5,-32.2 160.9,-43.83 122.08,-53.73"/>
<polygon fill="#f77f00" stroke="#f77f00" stroke-width="1.8" points="272.61,-50.15 280.95,-57.27 277.98,-51.72 281.63,-52.78 281.63,-52.78 281.63,-52.78 277.98,-51.72 283.47,-48.63 272.61,-50.15"/>
<polygon fill="#f77f00" stroke="#f77f00" stroke-width="1.8" points="119.59,-59.52 117.11,-49.83 119.05,-49.34 121.52,-59.03 119.59,-59.52"/>
<polyline fill="none" stroke="#f77f00" stroke-width="1.8" points="117.38,-54.93 122.23,-53.69"/>
<text text-anchor="middle" x="208.75" y="-36.15" font-family="Helvetica Neue" font-size="14.00"> </text>
<text text-anchor="middle" x="228.24" y="-21.2" font-family="Helvetica Neue" font-size="14.00">BelongsTo</text>
<text text-anchor="middle" x="228.24" y="-3.95" font-family="Helvetica Neue" font-size="14.00">role</text>
</g>
<!-- appmodelsarchive -->
<g id="node3" class="node">
<title>appmodelsarchive</title>
<polygon fill="none" stroke="black" points="117.25,-289.45 17.25,-289.45 17.25,-189.45 117.25,-189.45 117.25,-289.45"/>
<polygon fill="#d3d3d3" stroke="none" points="17.25,-250.2 17.25,-289.45 117.25,-289.45 117.25,-250.2 17.25,-250.2"/>
<polygon fill="none" stroke="black" points="17.25,-250.2 17.25,-289.45 117.25,-289.45 117.25,-250.2 17.25,-250.2"/>
<text text-anchor="start" x="44.75" y="-265.15" font-family="Helvetica Neue" font-size="14.00" fill="#333333">Archive</text>
</g>
<!-- appmodelsbooking -->
<g id="node4" class="node">
<title>appmodelsbooking</title>
<polygon fill="none" stroke="black" points="117.25,-461.45 17.25,-461.45 17.25,-361.45 117.25,-361.45 117.25,-461.45"/>
<polygon fill="#d3d3d3" stroke="none" points="17.25,-422.2 17.25,-461.45 117.25,-461.45 117.25,-422.2 17.25,-422.2"/>
<polygon fill="none" stroke="black" points="17.25,-422.2 17.25,-461.45 117.25,-461.45 117.25,-422.2 17.25,-422.2"/>
<text text-anchor="start" x="43.25" y="-437.15" font-family="Helvetica Neue" font-size="14.00" fill="#333333">Booking</text>
</g>
<!-- appmodelsbookingequipment -->
<g id="node5" class="node">
<title>appmodelsbookingequipment</title>
<polygon fill="none" stroke="black" points="134.5,-633.45 0,-633.45 0,-533.45 134.5,-533.45 134.5,-633.45"/>
<polygon fill="#d3d3d3" stroke="none" points="0,-594.2 0,-633.45 134.5,-633.45 134.5,-594.2 0,-594.2"/>
<polygon fill="none" stroke="black" points="0,-594.2 0,-633.45 134.5,-633.45 134.5,-594.2 0,-594.2"/>
<text text-anchor="start" x="11" y="-609.15" font-family="Helvetica Neue" font-size="14.00" fill="#333333">BookingEquipment</text>
</g>
<!-- appmodelsbookingservice -->
<g id="node6" class="node">
<title>appmodelsbookingservice</title>
<polygon fill="none" stroke="black" points="124.38,-805.45 10.12,-805.45 10.12,-705.45 124.38,-705.45 124.38,-805.45"/>
<polygon fill="#d3d3d3" stroke="none" points="10.12,-766.2 10.12,-805.45 124.38,-805.45 124.38,-766.2 10.12,-766.2"/>
<polygon fill="none" stroke="black" points="10.12,-766.2 10.12,-805.45 124.38,-805.45 124.38,-766.2 10.12,-766.2"/>
<text text-anchor="start" x="21.12" y="-781.15" font-family="Helvetica Neue" font-size="14.00" fill="#333333">BookingService</text>
</g>
<!-- appmodelsbookingstaff -->
<g id="node7" class="node">
<title>appmodelsbookingstaff</title>
<polygon fill="none" stroke="black" points="117.25,-977.45 17.25,-977.45 17.25,-877.45 117.25,-877.45 117.25,-977.45"/>
<polygon fill="#d3d3d3" stroke="none" points="17.25,-938.2 17.25,-977.45 117.25,-977.45 117.25,-938.2 17.25,-938.2"/>
<polygon fill="none" stroke="black" points="17.25,-938.2 17.25,-977.45 117.25,-977.45 117.25,-938.2 17.25,-938.2"/>
<text text-anchor="start" x="29" y="-953.15" font-family="Helvetica Neue" font-size="14.00" fill="#333333">BookingStaff</text>
</g>
<!-- appmodelscancellation -->
<g id="node8" class="node">
<title>appmodelscancellation</title>
<polygon fill="none" stroke="black" points="117.25,-1149.45 17.25,-1149.45 17.25,-1049.45 117.25,-1049.45 117.25,-1149.45"/>
<polygon fill="#d3d3d3" stroke="none" points="17.25,-1110.2 17.25,-1149.45 117.25,-1149.45 117.25,-1110.2 17.25,-1110.2"/>
<polygon fill="none" stroke="black" points="17.25,-1110.2 17.25,-1149.45 117.25,-1149.45 117.25,-1110.2 17.25,-1110.2"/>
<text text-anchor="start" x="30.5" y="-1125.15" font-family="Helvetica Neue" font-size="14.00" fill="#333333">Cancellation</text>
</g>
<!-- appmodelsequipment -->
<g id="node9" class="node">
<title>appmodelsequipment</title>
<polygon fill="none" stroke="black" points="117.25,-1321.45 17.25,-1321.45 17.25,-1221.45 117.25,-1221.45 117.25,-1321.45"/>
<polygon fill="#d3d3d3" stroke="none" points="17.25,-1282.2 17.25,-1321.45 117.25,-1321.45 117.25,-1282.2 17.25,-1282.2"/>
<polygon fill="none" stroke="black" points="17.25,-1282.2 17.25,-1321.45 117.25,-1321.45 117.25,-1282.2 17.25,-1282.2"/>
<text text-anchor="start" x="35" y="-1297.15" font-family="Helvetica Neue" font-size="14.00" fill="#333333">Equipment</text>
</g>
<!-- appmodelseventtype -->
<g id="node10" class="node">
<title>appmodelseventtype</title>
<polygon fill="none" stroke="black" points="117.25,-1493.45 17.25,-1493.45 17.25,-1393.45 117.25,-1393.45 117.25,-1493.45"/>
<polygon fill="#d3d3d3" stroke="none" points="17.25,-1454.2 17.25,-1493.45 117.25,-1493.45 117.25,-1454.2 17.25,-1454.2"/>
<polygon fill="none" stroke="black" points="17.25,-1454.2 17.25,-1493.45 117.25,-1493.45 117.25,-1454.2 17.25,-1454.2"/>
<text text-anchor="start" x="36.12" y="-1469.15" font-family="Helvetica Neue" font-size="14.00" fill="#333333">EventType</text>
</g>
<!-- appmodelshall -->
<g id="node11" class="node">
<title>appmodelshall</title>
<polygon fill="none" stroke="black" points="117.25,-1665.45 17.25,-1665.45 17.25,-1565.45 117.25,-1565.45 117.25,-1665.45"/>
<polygon fill="#d3d3d3" stroke="none" points="17.25,-1626.2 17.25,-1665.45 117.25,-1665.45 117.25,-1626.2 17.25,-1626.2"/>
<polygon fill="none" stroke="black" points="17.25,-1626.2 17.25,-1665.45 117.25,-1665.45 117.25,-1626.2 17.25,-1626.2"/>
<text text-anchor="start" x="55.62" y="-1641.15" font-family="Helvetica Neue" font-size="14.00" fill="#333333">Hall</text>
</g>
<!-- appmodelslaunchstaff -->
<g id="node12" class="node">
<title>appmodelslaunchstaff</title>
<polygon fill="none" stroke="black" points="117.25,-1837.45 17.25,-1837.45 17.25,-1737.45 117.25,-1737.45 117.25,-1837.45"/>
<polygon fill="#d3d3d3" stroke="none" points="17.25,-1798.2 17.25,-1837.45 117.25,-1837.45 117.25,-1798.2 17.25,-1798.2"/>
<polygon fill="none" stroke="black" points="17.25,-1798.2 17.25,-1837.45 117.25,-1837.45 117.25,-1798.2 17.25,-1798.2"/>
<text text-anchor="start" x="31.25" y="-1813.15" font-family="Helvetica Neue" font-size="14.00" fill="#333333">LaunchStaff</text>
</g>
<!-- appmodelsreview -->
<g id="node13" class="node">
<title>appmodelsreview</title>
<polygon fill="none" stroke="black" points="117.25,-2009.45 17.25,-2009.45 17.25,-1909.45 117.25,-1909.45 117.25,-2009.45"/>
<polygon fill="#d3d3d3" stroke="none" points="17.25,-1970.2 17.25,-2009.45 117.25,-2009.45 117.25,-1970.2 17.25,-1970.2"/>
<polygon fill="none" stroke="black" points="17.25,-1970.2 17.25,-2009.45 117.25,-2009.45 117.25,-1970.2 17.25,-1970.2"/>
<text text-anchor="start" x="45.5" y="-1985.15" font-family="Helvetica Neue" font-size="14.00" fill="#333333">Review</text>
</g>
<!-- appmodelsservice -->
<g id="node14" class="node">
<title>appmodelsservice</title>
<polygon fill="none" stroke="black" points="117.25,-2181.45 17.25,-2181.45 17.25,-2081.45 117.25,-2081.45 117.25,-2181.45"/>
<polygon fill="#d3d3d3" stroke="none" points="17.25,-2142.2 17.25,-2181.45 117.25,-2181.45 117.25,-2142.2 17.25,-2142.2"/>
<polygon fill="none" stroke="black" points="17.25,-2142.2 17.25,-2181.45 117.25,-2181.45 117.25,-2142.2 17.25,-2142.2"/>
<text text-anchor="start" x="45.12" y="-2157.15" font-family="Helvetica Neue" font-size="14.00" fill="#333333">Service</text>
</g>
<!-- appmodelsvenue -->
<g id="node15" class="node">
<title>appmodelsvenue</title>
<polygon fill="none" stroke="black" points="117.25,-2353.45 17.25,-2353.45 17.25,-2253.45 117.25,-2253.45 117.25,-2353.45"/>
<polygon fill="#d3d3d3" stroke="none" points="17.25,-2314.2 17.25,-2353.45 117.25,-2353.45 117.25,-2314.2 17.25,-2314.2"/>
<polygon fill="none" stroke="black" points="17.25,-2314.2 17.25,-2353.45 117.25,-2353.45 117.25,-2314.2 17.25,-2314.2"/>
<text text-anchor="start" x="48.5" y="-2329.15" font-family="Helvetica Neue" font-size="14.00" fill="#333333">Venue</text>
</g>
</g>
</svg>
